<svg xmlns="http://www.w3.org/2000/svg" version="1.1" xmlns:xlink="http://www.w3.org/1999/xlink" xmlns:svgjs="http://svgjs.dev/svgjs" width="1500" height="500" viewBox="0 0 1500 500"><g transform="matrix(1,0,0,1,-0.9090909090909918,0.5394362063630922)"><svg viewBox="0 0 396 132" data-background-color="#ffffff" preserveAspectRatio="xMidYMid meet" height="500" width="1500" xmlns="http://www.w3.org/2000/svg" xmlns:xlink="http://www.w3.org/1999/xlink"><g id="tight-bounds" transform="matrix(1,0,0,1,0.2400000000000091,-0.14241115847985952)"><svg viewBox="0 0 395.52 132.28465244409023" height="132.28465244409023" width="395.52"><g><svg viewBox="0 0 663.5721370186702 221.93671500075095" height="132.28465244409023" width="395.52"><g transform="matrix(1,0,0,1,268.0521370186702,40.89428220031826)"><svg viewBox="0 0 395.52 140.14815060011443" height="140.14815060011443" width="395.52"><g id="textblocktransform"><svg viewBox="0 0 395.52 140.14815060011443" height="140.14815060011443" width="395.52" id="textblock"><g><svg viewBox="0 0 395.52 97.67071201206232" height="97.67071201206232" width="395.52"><g transform="matrix(1,0,0,1,0,0)"><svg width="395.52" viewBox="3.49 -35.5 145.70999999999998 35.99" height="97.67071201206232" data-palette-color="#202046"><g class="wordmark-text-0" data-fill-palette-color="primary" id="text-0"><path d="M23.19-8.11L23.19-8.11Q23.19-6.32 22.52-4.76 21.85-3.2 20.68-2.03 19.51-0.85 17.94-0.18 16.38 0.49 14.6 0.49L14.6 0.49 12.11 0.49Q10.33 0.49 8.75-0.18 7.18-0.85 6.01-2.03 4.83-3.2 4.16-4.76 3.49-6.32 3.49-8.11L3.49-8.11 3.49-26.9Q3.49-28.69 4.16-30.25 4.83-31.81 6.01-32.98 7.18-34.16 8.75-34.83 10.33-35.5 12.11-35.5L12.11-35.5 14.6-35.5Q16.38-35.5 17.94-34.83 19.51-34.16 20.68-32.98 21.85-31.81 22.52-30.25 23.19-28.69 23.19-26.9L23.19-26.9 23.19-25.49 20.04-25 20.04-26.9Q20.04-28.08 19.6-29.09 19.17-30.1 18.41-30.86 17.65-31.62 16.64-32.06 15.63-32.5 14.45-32.5L14.45-32.5 12.26-32.5Q11.08-32.5 10.07-32.06 9.06-31.62 8.29-30.86 7.52-30.1 7.08-29.09 6.64-28.08 6.64-26.9L6.64-26.9 6.64-8.11Q6.64-6.93 7.08-5.92 7.52-4.91 8.29-4.14 9.06-3.37 10.07-2.93 11.08-2.49 12.26-2.49L12.26-2.49 14.45-2.49Q15.63-2.49 16.64-2.93 17.65-3.37 18.41-4.14 19.17-4.91 19.6-5.92 20.04-6.93 20.04-8.11L20.04-8.11 20.04-10.01 23.19-9.5 23.19-8.11ZM45.9-6.86L45.9-6.86Q45.9-5.35 45.32-4 44.75-2.66 43.75-1.66 42.75-0.66 41.4-0.09 40.06 0.49 38.55 0.49L38.55 0.49 36.55 0.49Q35.03 0.49 33.69-0.09 32.35-0.66 31.35-1.66 30.34-2.66 29.77-4 29.2-5.35 29.2-6.86L29.2-6.86 29.2-18.14Q29.2-19.65 29.77-21 30.34-22.34 31.35-23.34 32.35-24.34 33.69-24.91 35.03-25.49 36.55-25.49L36.55-25.49 38.55-25.49Q40.06-25.49 41.4-24.91 42.75-24.34 43.75-23.34 44.75-22.34 45.32-21 45.9-19.65 45.9-18.14L45.9-18.14 45.9-6.86ZM42.89-6.69L42.89-18.31Q42.89-19.21 42.55-20.01 42.21-20.8 41.62-21.39 41.04-21.97 40.24-22.31 39.45-22.66 38.55-22.66L38.55-22.66 36.55-22.66Q35.64-22.66 34.85-22.31 34.06-21.97 33.47-21.39 32.88-20.8 32.54-20.01 32.2-19.21 32.2-18.31L32.2-18.31 32.2-6.69Q32.2-5.79 32.54-4.99 32.88-4.2 33.47-3.61 34.06-3.03 34.85-2.69 35.64-2.34 36.55-2.34L36.55-2.34 38.55-2.34Q39.45-2.34 40.24-2.69 41.04-3.03 41.62-3.61 42.21-4.2 42.55-4.99 42.89-5.79 42.89-6.69L42.89-6.69ZM68.6 0L65.6 0 65.6-18.31Q65.6-19.21 65.25-20.01 64.91-20.8 64.33-21.39 63.74-21.97 62.95-22.31 62.15-22.66 61.25-22.66L61.25-22.66 59.25-22.66Q58.34-22.66 57.55-22.31 56.76-21.97 56.17-21.39 55.59-20.8 55.24-20.01 54.9-19.21 54.9-18.31L54.9-18.31 54.9 0 51.9 0 51.9-25 52.9-25 54.54-22.46Q55.56-23.85 57.11-24.67 58.66-25.49 60.49-25.49L60.49-25.49 61.25-25.49Q62.76-25.49 64.11-24.91 65.45-24.34 66.45-23.34 67.45-22.34 68.02-21 68.6-19.65 68.6-18.14L68.6-18.14 68.6 0ZM86.44 0L83.71 0Q82.34 0 81.13-0.51 79.92-1.03 79.03-1.93 78.14-2.83 77.62-4.03 77.09-5.22 77.09-6.59L77.09-6.59 77.09-22.14 72.6-22.14 72.6-25 77.09-25 77.09-31.01 80.1-31.49 80.1-25 86.44-25 86.44-22.14 80.1-22.14 80.1-6.45Q80.1-5.69 80.38-5.04 80.66-4.39 81.14-3.91 81.63-3.42 82.29-3.14 82.95-2.86 83.71-2.86L83.71-2.86 86.44-2.86 86.44 0ZM108.66 0L107.66 0 106-2.49Q104.97-1.15 103.43-0.33 101.89 0.49 100.06 0.49L100.06 0.49 99.31 0.49Q97.79 0.49 96.45-0.09 95.11-0.66 94.11-1.66 93.11-2.66 92.53-4 91.96-5.35 91.96-6.86L91.96-6.86 91.96-7.1Q91.96-8.62 92.53-9.96 93.11-11.3 94.11-12.3 95.11-13.31 96.45-13.88 97.79-14.45 99.31-14.45L99.31-14.45 105.65-14.45 105.65-18.31Q105.65-19.21 105.31-20.01 104.97-20.8 104.38-21.39 103.8-21.97 103.01-22.31 102.21-22.66 101.31-22.66L101.31-22.66 99.55-22.66Q98.65-22.66 97.85-22.31 97.06-21.97 96.47-21.39 95.89-20.8 95.55-20.01 95.2-19.21 95.2-18.31L95.2-18.31 95.2-17.41 92.2-17.9 92.2-18.14Q92.2-19.65 92.78-21 93.35-22.34 94.35-23.34 95.35-24.34 96.69-24.91 98.04-25.49 99.55-25.49L99.55-25.49 101.31-25.49Q102.82-25.49 104.16-24.91 105.51-24.34 106.51-23.34 107.51-22.34 108.08-21 108.66-19.65 108.66-18.14L108.66-18.14 108.66 0ZM105.65-6.69L105.65-12.11 99.31-12.11Q98.4-12.11 97.61-11.77 96.82-11.43 96.23-10.83 95.64-10.23 95.3-9.44 94.96-8.64 94.96-7.74L94.96-7.74 94.96-6.69Q94.96-5.79 95.3-4.99 95.64-4.2 96.23-3.61 96.82-3.03 97.61-2.69 98.4-2.34 99.31-2.34L99.31-2.34 101.31-2.34Q102.21-2.34 103.01-2.69 103.8-3.03 104.38-3.61 104.97-4.2 105.31-4.99 105.65-5.79 105.65-6.69L105.65-6.69ZM131.36-6.86L131.36-6.86Q131.36-5.35 130.79-4 130.21-2.66 129.21-1.66 128.21-0.66 126.87-0.09 125.52 0.49 124.01 0.49L124.01 0.49 122.01 0.49Q120.5 0.49 119.15-0.09 117.81-0.66 116.81-1.66 115.81-2.66 115.23-4 114.66-5.35 114.66-6.86L114.66-6.86 114.66-18.14Q114.66-19.65 115.23-21 115.81-22.34 116.81-23.34 117.81-24.34 119.15-24.91 120.5-25.49 122.01-25.49L122.01-25.49 124.01-25.49Q125.52-25.49 126.87-24.91 128.21-24.34 129.21-23.34 130.21-22.34 130.79-21 131.36-19.65 131.36-18.14L131.36-18.14 131.36-17.14 128.36-16.65 128.36-18.31Q128.36-19.21 128.01-20.01 127.67-20.8 127.09-21.39 126.5-21.97 125.71-22.31 124.91-22.66 124.01-22.66L124.01-22.66 122.01-22.66Q121.11-22.66 120.31-22.31 119.52-21.97 118.93-21.39 118.35-20.8 118.01-20.01 117.66-19.21 117.66-18.31L117.66-18.31 117.66-6.69Q117.66-5.79 118.01-4.99 118.35-4.2 118.93-3.61 119.52-3.03 120.31-2.69 121.11-2.34 122.01-2.34L122.01-2.34 124.01-2.34Q124.91-2.34 125.71-2.69 126.5-3.03 127.09-3.61 127.67-4.2 128.01-4.99 128.36-5.79 128.36-6.69L128.36-6.69 128.36-8.35 131.36-7.86 131.36-6.86ZM149.2 0L146.47 0Q145.1 0 143.89-0.51 142.69-1.03 141.79-1.93 140.9-2.83 140.38-4.03 139.85-5.22 139.85-6.59L139.85-6.59 139.85-22.14 135.36-22.14 135.36-25 139.85-25 139.85-31.01 142.86-31.49 142.86-25 149.2-25 149.2-22.14 142.86-22.14 142.86-6.45Q142.86-5.69 143.14-5.04 143.42-4.39 143.91-3.91 144.39-3.42 145.05-3.14 145.71-2.86 146.47-2.86L146.47-2.86 149.2-2.86 149.2 0Z" fill="#202046" data-fill-palette-color="primary"></path></g></svg></g></svg></g><g transform="matrix(1,0,0,1,0,120.72842302102195)"><svg viewBox="0 0 232.209792 19.419727579092473" height="19.419727579092473" width="232.209792"><g transform="matrix(1,0,0,1,0,0)"><svg width="232.209792" viewBox="1.6 -35.7 435.21999999999997 36.400000000000006" height="19.419727579092473" data-palette-color="#3886ce"><path d="M17.6 0L14 0 14-14.8 1.6-35 5.4-35 16.55-16.7 16.85-16.7 25.75-35 29.55-35 17.6-15.5 17.6 0ZM33.15-17.5L33.15-17.5Q33.15-21.35 34.52-24.68 35.9-28 38.37-30.48 40.85-32.95 44.17-34.33 47.5-35.7 51.35-35.7L51.35-35.7Q55.2-35.7 58.52-34.33 61.85-32.95 64.32-30.48 66.8-28 68.17-24.68 69.55-21.35 69.55-17.5L69.55-17.5Q69.55-13.65 68.17-10.33 66.8-7 64.32-4.53 61.85-2.05 58.52-0.68 55.2 0.7 51.35 0.7L51.35 0.7Q47.5 0.7 44.17-0.68 40.85-2.05 38.37-4.53 35.9-7 34.52-10.33 33.15-13.65 33.15-17.5ZM36.95-17.5L36.95-17.5Q36.95-12.4 38.75-8.58 40.55-4.75 43.8-2.63 47.05-0.5 51.35-0.5L51.35-0.5Q55.65-0.5 58.9-2.63 62.15-4.75 63.95-8.6 65.75-12.45 65.75-17.5L65.75-17.5Q65.75-22.55 63.95-26.38 62.15-30.2 58.9-32.35 55.65-34.5 51.35-34.5L51.35-34.5Q47.05-34.5 43.82-32.38 40.6-30.25 38.77-26.43 36.95-22.6 36.95-17.5ZM79.55-14L79.55-35 82.95-35 82.95-13.9Q82.95-7.85 85.92-4.48 88.9-1.1 94.3-1.1L94.3-1.1Q97.7-1.1 100.22-2.43 102.75-3.75 104.12-6.1 105.5-8.45 105.4-11.5L105.4-11.5 104.55-35 107.95-35 107.1-11.5Q106.9-5.5 103.52-2.4 100.15 0.7 93.9 0.7L93.9 0.7Q87.15 0.7 83.35-3.23 79.55-7.15 79.55-14L79.55-14ZM119.94 0L119.94-35 126.64-35Q131.94-35 134.87-32.77 137.79-30.55 137.79-26.55L137.79-26.55Q137.79-23.45 135.97-21.4 134.14-19.35 130.69-18.65L130.69-18.65 130.69-18.35Q133.99-17.7 136.09-15.25 138.19-12.8 139.24-9.2L139.24-9.2Q140.19-5.9 141.12-4.08 142.04-2.25 143.17-1.45 144.29-0.65 145.84-0.3L145.84-0.3 145.84 0 143.79 0Q141.59 0 140.17-0.8 138.74-1.6 137.74-3.5 136.74-5.4 135.84-8.75L135.84-8.75Q134.39-13.9 131.99-16.05 129.59-18.2 126.14-18.2L126.14-18.2 125.84-18.2 125.84-19.1 126.14-19.1Q134.19-19.1 134.19-26.5L134.19-26.5Q134.19-33.8 126.64-33.8L126.64-33.8 123.34-33.8 123.34 0 119.94 0ZM193.14-4.3L193.44-4.3 193.14-1.25Q191.74-0.65 189.74-0.2 187.74 0.25 185.69 0.48 183.64 0.7 182.04 0.7L182.04 0.7Q177.99 0.7 174.54-0.68 171.09-2.05 168.51-4.5 165.94-6.95 164.49-10.28 163.04-13.6 163.04-17.5L163.04-17.5Q163.04-21.4 164.49-24.73 165.94-28.05 168.51-30.5 171.09-32.95 174.54-34.33 177.99-35.7 182.04-35.7L182.04-35.7Q183.69-35.7 185.74-35.45 187.79-35.2 189.74-34.77 191.69-34.35 193.04-33.8L193.04-33.8 192.79-31 192.49-31Q190.64-32.7 187.84-33.6 185.04-34.5 182.04-34.5L182.04-34.5Q177.54-34.5 174.11-32.38 170.69-30.25 168.76-26.43 166.84-22.6 166.84-17.5L166.84-17.5Q166.84-12.35 168.76-8.55 170.69-4.75 174.09-2.63 177.49-0.5 182.04-0.5L182.04-0.5Q185.44-0.5 188.36-1.6 191.29-2.7 193.14-4.3L193.14-4.3ZM199.94-17.5L199.94-17.5Q199.94-21.35 201.31-24.68 202.69-28 205.16-30.48 207.64-32.95 210.96-34.33 214.29-35.7 218.14-35.7L218.14-35.7Q221.99-35.7 225.31-34.33 228.64-32.95 231.11-30.48 233.59-28 234.96-24.68 236.34-21.35 236.34-17.5L236.34-17.5Q236.34-13.65 234.96-10.33 233.59-7 231.11-4.53 228.64-2.05 225.31-0.68 221.99 0.7 218.14 0.7L218.14 0.7Q214.29 0.7 210.96-0.68 207.64-2.05 205.16-4.53 202.69-7 201.31-10.33 199.94-13.65 199.94-17.5ZM203.74-17.5L203.74-17.5Q203.74-12.4 205.54-8.58 207.34-4.75 210.59-2.63 213.84-0.5 218.14-0.5L218.14-0.5Q222.44-0.5 225.69-2.63 228.94-4.75 230.74-8.6 232.54-12.45 232.54-17.5L232.54-17.5Q232.54-22.55 230.74-26.38 228.94-30.2 225.69-32.35 222.44-34.5 218.14-34.5L218.14-34.5Q213.84-34.5 210.61-32.38 207.39-30.25 205.56-26.43 203.74-22.6 203.74-17.5ZM249.48 0L246.08 0 247.33-35.7 247.93-35.7 273.08-5.3 273.38-5.3 272.28-35 275.68-35 274.43 0.7 273.83 0.7 248.68-29.7 248.38-29.7 249.48 0ZM299.33 0L295.93 0 295.93-34Q295.18-34 292.83-33.7L292.83-33.7 283.03-32.45 283.03-35 312.23-35 312.23-32.45 302.43-33.7Q300.08-34 299.33-34L299.33-34 299.33 0ZM315.78 0L312.13 0 325.58-35 328.68-35 342.13 0 338.48 0 332.28-16.4 320.93-16.4 315.78 0ZM326.23-32.4L325.93-32.4 321.28-17.6 331.83-17.6 326.23-32.4ZM377.33-4.3L377.63-4.3 377.33-1.25Q375.93-0.65 373.93-0.2 371.93 0.25 369.88 0.48 367.83 0.7 366.23 0.7L366.23 0.7Q362.18 0.7 358.73-0.68 355.28-2.05 352.7-4.5 350.13-6.95 348.68-10.28 347.23-13.6 347.23-17.5L347.23-17.5Q347.23-21.4 348.68-24.73 350.13-28.05 352.7-30.5 355.28-32.95 358.73-34.33 362.18-35.7 366.23-35.7L366.23-35.7Q367.88-35.7 369.93-35.45 371.98-35.2 373.93-34.77 375.88-34.35 377.23-33.8L377.23-33.8 376.98-31 376.68-31Q374.83-32.7 372.03-33.6 369.23-34.5 366.23-34.5L366.23-34.5Q361.73-34.5 358.3-32.38 354.88-30.25 352.95-26.43 351.03-22.6 351.03-17.5L351.03-17.5Q351.03-12.35 352.95-8.55 354.88-4.75 358.28-2.63 361.68-0.5 366.23-0.5L366.23-0.5Q369.63-0.5 372.55-1.6 375.48-2.7 377.33-4.3L377.33-4.3ZM399.02 0L395.62 0 395.62-34Q394.87-34 392.52-33.7L392.52-33.7 382.72-32.45 382.72-35 411.92-35 411.92-32.45 402.12-33.7Q399.77-34 399.02-34L399.02-34 399.02 0ZM416.47-1.1L416.47-1.1 416.77-4.1 417.07-4.1Q419.02-2.4 421.47-1.45 423.92-0.5 426.32-0.5L426.32-0.5Q429.72-0.5 431.82-2.38 433.92-4.25 433.92-7.4L433.92-7.4Q433.92-9.15 433.14-10.65 432.37-12.15 430.59-13.7 428.82-15.25 425.72-17.05L425.72-17.05Q423.57-18.3 421.62-19.68 419.67-21.05 418.42-22.88 417.17-24.7 417.17-27.25L417.17-27.25Q417.17-31.05 419.92-33.38 422.67-35.7 427.17-35.7L427.17-35.7Q429.17-35.7 431.47-35.27 433.77-34.85 435.02-34.2L435.02-34.2 434.77-31.4 434.47-31.4Q431.62-34.5 427.17-34.5L427.17-34.5Q423.97-34.5 422.02-32.88 420.07-31.25 420.07-28.5L420.07-28.5Q420.07-26.45 421.14-24.98 422.22-23.5 423.92-22.33 425.62-21.15 427.57-20.05L427.57-20.05Q429.82-18.75 431.94-17.3 434.07-15.85 435.44-13.83 436.82-11.8 436.82-8.75L436.82-8.75Q436.82-5.95 435.52-3.83 434.22-1.7 431.84-0.5 429.47 0.7 426.32 0.7L426.32 0.7Q424.32 0.7 421.62 0.2 418.92-0.3 416.47-1.1Z" opacity="1" transform="matrix(1,0,0,1,0,0)" fill="#3886ce" class="slogan-text-1" data-fill-palette-color="secondary" id="text-1"></path></svg></g></svg></g></svg></g></svg></g><g><svg viewBox="0 0 221.93671500075095 221.93671500075095" height="221.93671500075095" width="221.93671500075095"><g><svg></svg></g><g id="icon-0"><svg viewBox="0 0 221.93671500075095 221.93671500075095" height="221.93671500075095" width="221.93671500075095"><g><path d="M0 110.968c0-61.286 49.682-110.968 110.968-110.968 61.286 0 110.968 49.682 110.969 110.968 0 61.286-49.682 110.968-110.969 110.969-61.286 0-110.968-49.682-110.968-110.969zM110.968 213.129c56.422 0 102.16-45.739 102.161-102.161 0-56.422-45.739-102.16-102.161-102.16-56.422 0-102.16 45.739-102.16 102.16 0 56.422 45.739 102.16 102.16 102.161z" data-fill-palette-color="accent" fill="#fe633d" stroke="transparent"></path></g><g transform="matrix(1,0,0,1,51.70225992402793,61.629689680243644)"><svg viewBox="0 0 118.5321951526951 98.67733564026366" height="98.67733564026366" width="118.5321951526951"><g><svg xmlns="http://www.w3.org/2000/svg" xmlns:xlink="http://www.w3.org/1999/xlink" version="1.1" x="0" y="0" viewBox="23.65 31.205999999999996 50.434000000000005 41.98600000000001" enable-background="new 0 0 100 100" xml:space="preserve" height="98.67733564026366" width="118.5321951526951" class="icon-cg-0" data-fill-palette-color="accent" id="cg-0"><g fill="#fe633d" data-fill-palette-color="accent"><g fill="#fe633d" data-fill-palette-color="accent"><g fill="#fe633d" data-fill-palette-color="accent"><g fill="#fe633d" data-fill-palette-color="accent"><g fill="#fe633d" data-fill-palette-color="accent"><path d="M34.679 59.56c0 1.321-0.943 2.396-2.111 2.396h-3.035-3.753c-1.169 0-2.129-1.075-2.129-2.396 0-1.317 0.96-2.374 2.129-2.374h3.753 3.035C33.735 57.186 34.679 58.242 34.679 59.56z" fill="#fe633d" data-fill-palette-color="accent"></path><path d="M74.083 64.369v4.355c0 2.469-2.094 4.468-4.638 4.468H34.171c-2.565 0-4.639-1.999-4.639-4.468v-3.81h3.035c1.754 0 3.299-0.943 4.223-2.356 0.547-0.866 0.849-1.904 0.849-2.999 0-2.939-2.263-5.354-5.071-5.354h-3.035v-4.297h3.035c2.809 0 5.071-2.413 5.071-5.354 0-2.942-2.263-5.355-5.071-5.355h-3.035v-3.508c0-2.469 2.073-4.485 4.639-4.485h35.274c2.544 0 4.638 2.017 4.638 4.485V64.369zM70.615 61.145V39.69c0-2.564-0.209-4.658-2.678-4.658H55.305h-8.598c-2.451 0-4.448 2.094-4.448 4.658v20.135c0.019 0 0.036-0.018 0.075-0.018 5.807-1.584 8.709-2.266 9.369-4.15h0.303c-0.094-0.073-0.17-0.131-0.245-0.226-2.471-2.224-4.355-6.562-4.355-10.066 0-4.961 4.053-8.221 7.899-8.221 3.826 0 7.692 3.525 7.692 8.483 0 3.508-2.093 7.692-4.657 9.859 0.509 2.019 3.413 2.678 9.408 4.32C69.029 60.164 69.953 60.599 70.615 61.145zM53.475 55.657h0.302c-0.075-0.073-0.169-0.131-0.244-0.226C53.513 55.508 53.495 55.584 53.475 55.657z" fill="#fe633d" data-fill-palette-color="accent"></path><path d="M53.776 55.657h-0.302c0.021-0.073 0.038-0.149 0.058-0.226C53.607 55.526 53.701 55.584 53.776 55.657z" fill="#fe633d" data-fill-palette-color="accent"></path><path d="M32.567 42.16c1.168 0 2.111 1.072 2.111 2.395 0 1.318-0.943 2.375-2.111 2.375h-3.035-3.753c-1.169 0-2.129-1.057-2.129-2.375 0-1.322 0.96-2.395 2.129-2.395h3.753H32.567z" fill="#fe633d" data-fill-palette-color="accent"></path></g></g></g></g></g></svg></g></svg></g></svg></g></svg></g></svg></g><defs></defs></svg><rect width="395.52" height="132.28465244409023" fill="none" stroke="none" visibility="hidden"></rect></g></svg></g></svg>